<mxfile host="app.diagrams.net" agent="Mozilla/5.0 (Windows NT 10.0; Win64; x64) AppleWebKit/537.36 (KHTML, like Gecko) Chrome/132.0.0.0 YaBrowser/25.2.0.0 Safari/537.36" version="26.1.1">
  <diagram id="5BJHQbNZoSjJaTl8mKqh" name="Страница — 2">
    <mxGraphModel dx="1687" dy="921" grid="1" gridSize="10" guides="1" tooltips="1" connect="1" arrows="1" fold="1" page="1" pageScale="1" pageWidth="827" pageHeight="1169" math="0" shadow="0">
      <root>
        <mxCell id="0" />
        <mxCell id="1" parent="0" />
        <mxCell id="7LvVv_zrxqdaRvnYlChR-1" value="MainForm" style="swimlane;fontStyle=1;align=center;verticalAlign=top;childLayout=stackLayout;horizontal=1;startSize=26;horizontalStack=0;resizeParent=1;resizeParentMax=0;resizeLast=0;collapsible=1;marginBottom=0;" vertex="1" parent="1">
          <mxGeometry x="100" y="150" width="200" height="100" as="geometry" />
        </mxCell>
        <mxCell id="7LvVv_zrxqdaRvnYlChR-2" value="- BotLogic bot;&#xa;- void LoadChatHistory()&#xa;- void MainForm_Load()&#xa;- void AppendColoredText()" style="text;strokeColor=none;fillColor=none;align=left;verticalAlign=top;spacingLeft=4;spacingRight=4;overflow=hidden;rotatable=0;points=[[0,0.5],[1,0.5]];portConstraint=eastwest;" vertex="1" parent="7LvVv_zrxqdaRvnYlChR-1">
          <mxGeometry y="26" width="200" height="74" as="geometry" />
        </mxCell>
        <mxCell id="7LvVv_zrxqdaRvnYlChR-3" value="Наследование" style="endArrow=block;endSize=16;endFill=0;html=1;rounded=0;" edge="1" parent="1">
          <mxGeometry x="-0.3333" y="10" width="160" relative="1" as="geometry">
            <mxPoint x="820" y="440" as="sourcePoint" />
            <mxPoint x="920" y="440" as="targetPoint" />
            <Array as="points">
              <mxPoint x="870" y="440" />
            </Array>
            <mxPoint as="offset" />
          </mxGeometry>
        </mxCell>
        <mxCell id="7LvVv_zrxqdaRvnYlChR-4" value="BotLogic" style="swimlane;fontStyle=1;align=center;verticalAlign=top;childLayout=stackLayout;horizontal=1;startSize=26;horizontalStack=0;resizeParent=1;resizeParentMax=0;resizeLast=0;collapsible=1;marginBottom=0;" vertex="1" parent="1">
          <mxGeometry x="70" y="330" width="260" height="270" as="geometry" />
        </mxCell>
        <mxCell id="7LvVv_zrxqdaRvnYlChR-5" value="- List&lt;Message&gt; messageHistory&#xa;- string userName&#xa;- string GenerateResponse()&#xa;- string GetTimeForCity()&#xa;- bool IsMathExpression()&#xa;- double EvaluateExpression()&#xa;- double EvaluateSimpleExpression()&#xa;- double EvaluateMultiplication()&#xa;- void LoadHistory()&#xa;----------------------------------------------------------------&#xa;+ string UserName&#xa;+ BotLogic()&#xa;+ string ProcessMessage()&#xa;+  void SetUserName()&#xa;+ void SaveHistory()&#xa;+ List&lt;Message&gt; GetHistory()" style="text;strokeColor=none;fillColor=none;align=left;verticalAlign=top;spacingLeft=4;spacingRight=4;overflow=hidden;rotatable=0;points=[[0,0.5],[1,0.5]];portConstraint=eastwest;" vertex="1" parent="7LvVv_zrxqdaRvnYlChR-4">
          <mxGeometry y="26" width="260" height="244" as="geometry" />
        </mxCell>
        <mxCell id="7LvVv_zrxqdaRvnYlChR-6" value="Message" style="swimlane;fontStyle=1;align=center;verticalAlign=top;childLayout=stackLayout;horizontal=1;startSize=26;horizontalStack=0;resizeParent=1;resizeParentMax=0;resizeLast=0;collapsible=1;marginBottom=0;" vertex="1" parent="1">
          <mxGeometry x="100" y="700" width="200" height="80" as="geometry" />
        </mxCell>
        <mxCell id="7LvVv_zrxqdaRvnYlChR-7" value="- string Author&#xa;- string Text&#xa;- DateTime Timestamp" style="text;strokeColor=none;fillColor=none;align=left;verticalAlign=top;spacingLeft=4;spacingRight=4;overflow=hidden;rotatable=0;points=[[0,0.5],[1,0.5]];portConstraint=eastwest;" vertex="1" parent="7LvVv_zrxqdaRvnYlChR-6">
          <mxGeometry y="26" width="200" height="54" as="geometry" />
        </mxCell>
        <mxCell id="7LvVv_zrxqdaRvnYlChR-8" value="" style="endArrow=diamondThin;endFill=1;endSize=24;html=1;rounded=0;exitX=0.5;exitY=0;exitDx=0;exitDy=0;" edge="1" parent="1" source="7LvVv_zrxqdaRvnYlChR-6" target="7LvVv_zrxqdaRvnYlChR-5">
          <mxGeometry width="160" relative="1" as="geometry">
            <mxPoint x="259.99999999999994" y="584.9960000000001" as="sourcePoint" />
            <mxPoint x="261.96" y="684.02" as="targetPoint" />
          </mxGeometry>
        </mxCell>
        <mxCell id="7LvVv_zrxqdaRvnYlChR-9" value="" style="endArrow=diamondThin;endFill=1;endSize=24;html=1;rounded=0;exitX=0.5;exitY=0;exitDx=0;exitDy=0;entryX=0.49;entryY=1;entryDx=0;entryDy=0;entryPerimeter=0;" edge="1" parent="1" source="7LvVv_zrxqdaRvnYlChR-4" target="7LvVv_zrxqdaRvnYlChR-2">
          <mxGeometry width="160" relative="1" as="geometry">
            <mxPoint x="328" y="290" as="sourcePoint" />
            <mxPoint x="194" y="290" as="targetPoint" />
          </mxGeometry>
        </mxCell>
        <mxCell id="7LvVv_zrxqdaRvnYlChR-10" value="Form" style="swimlane;fontStyle=1;align=center;verticalAlign=top;childLayout=stackLayout;horizontal=1;startSize=26;horizontalStack=0;resizeParent=1;resizeParentMax=0;resizeLast=0;collapsible=1;marginBottom=0;" vertex="1" parent="1">
          <mxGeometry x="270" y="40" width="200" height="30" as="geometry" />
        </mxCell>
        <mxCell id="7LvVv_zrxqdaRvnYlChR-11" value="" style="endArrow=block;endSize=16;endFill=0;html=1;rounded=0;exitX=0.5;exitY=1;exitDx=0;exitDy=0;entryX=0.5;entryY=0;entryDx=0;entryDy=0;" edge="1" parent="1" source="7LvVv_zrxqdaRvnYlChR-10" target="7LvVv_zrxqdaRvnYlChR-1">
          <mxGeometry x="-0.3333" y="10" width="160" relative="1" as="geometry">
            <mxPoint x="320" y="110" as="sourcePoint" />
            <mxPoint x="440" y="110" as="targetPoint" />
            <Array as="points">
              <mxPoint x="370" y="110" />
              <mxPoint x="200" y="110" />
            </Array>
            <mxPoint as="offset" />
          </mxGeometry>
        </mxCell>
        <mxCell id="7LvVv_zrxqdaRvnYlChR-12" value="" style="endArrow=block;endSize=16;endFill=0;html=1;rounded=0;exitX=0.5;exitY=1;exitDx=0;exitDy=0;entryX=0.5;entryY=0;entryDx=0;entryDy=0;" edge="1" parent="1" target="7LvVv_zrxqdaRvnYlChR-16">
          <mxGeometry x="-0.3333" y="10" width="160" relative="1" as="geometry">
            <mxPoint x="370" y="70" as="sourcePoint" />
            <mxPoint x="540" y="150" as="targetPoint" />
            <Array as="points">
              <mxPoint x="370" y="110" />
              <mxPoint x="555" y="110" />
            </Array>
            <mxPoint as="offset" />
          </mxGeometry>
        </mxCell>
        <mxCell id="7LvVv_zrxqdaRvnYlChR-15" value="" style="endArrow=open;endSize=16;endFill=0;html=1;rounded=0;entryX=-0.005;entryY=0.302;entryDx=0;entryDy=0;entryPerimeter=0;" edge="1" parent="1" target="7LvVv_zrxqdaRvnYlChR-17">
          <mxGeometry x="-0.3333" y="10" width="160" relative="1" as="geometry">
            <mxPoint x="300" y="199.40999999999985" as="sourcePoint" />
            <mxPoint x="400" y="199.40999999999985" as="targetPoint" />
            <Array as="points">
              <mxPoint x="340" y="199.40999999999985" />
            </Array>
            <mxPoint as="offset" />
          </mxGeometry>
        </mxCell>
        <mxCell id="7LvVv_zrxqdaRvnYlChR-16" value="LoginForm" style="swimlane;fontStyle=1;align=center;verticalAlign=top;childLayout=stackLayout;horizontal=1;startSize=26;horizontalStack=0;resizeParent=1;resizeParentMax=0;resizeLast=0;collapsible=1;marginBottom=0;" vertex="1" parent="1">
          <mxGeometry x="440" y="150" width="230" height="110" as="geometry" />
        </mxCell>
        <mxCell id="7LvVv_zrxqdaRvnYlChR-17" value="+ string UserName&#xa;+ LoginForm()&#xa;-------------------------------------------------&#xa;- void textBoxUserName_TextChanged()&#xa;- void textBoxUserName_KeyDown()" style="text;strokeColor=none;fillColor=none;align=left;verticalAlign=top;spacingLeft=4;spacingRight=4;overflow=hidden;rotatable=0;points=[[0,0.5],[1,0.5]];portConstraint=eastwest;" vertex="1" parent="7LvVv_zrxqdaRvnYlChR-16">
          <mxGeometry y="26" width="230" height="84" as="geometry" />
        </mxCell>
        <mxCell id="7LvVv_zrxqdaRvnYlChR-18" value="Ассоциация" style="endArrow=open;endSize=16;endFill=0;html=1;rounded=0;" edge="1" parent="1">
          <mxGeometry x="-0.3333" y="10" width="160" relative="1" as="geometry">
            <mxPoint x="820" y="280" as="sourcePoint" />
            <mxPoint x="920" y="280" as="targetPoint" />
            <Array as="points">
              <mxPoint x="860" y="280" />
            </Array>
            <mxPoint as="offset" />
          </mxGeometry>
        </mxCell>
        <mxCell id="7LvVv_zrxqdaRvnYlChR-19" value="&lt;div&gt;&lt;br&gt;&lt;/div&gt;" style="endArrow=diamondThin;endFill=1;endSize=24;html=1;rounded=0;align=right;" edge="1" parent="1">
          <mxGeometry width="160" relative="1" as="geometry">
            <mxPoint x="820" y="360" as="sourcePoint" />
            <mxPoint x="920" y="360" as="targetPoint" />
            <mxPoint as="offset" />
          </mxGeometry>
        </mxCell>
        <mxCell id="7LvVv_zrxqdaRvnYlChR-20" value="Композиция" style="text;html=1;align=center;verticalAlign=middle;resizable=0;points=[];autosize=1;strokeColor=none;fillColor=none;" vertex="1" parent="1">
          <mxGeometry x="810" y="330" width="90" height="30" as="geometry" />
        </mxCell>
        <mxCell id="7LvVv_zrxqdaRvnYlChR-21" value="ком.&lt;br&gt;Добавить агрегацию" style="whiteSpace=wrap;html=1;" vertex="1" parent="1">
          <mxGeometry x="760" y="560" width="120" height="60" as="geometry" />
        </mxCell>
      </root>
    </mxGraphModel>
  </diagram>
</mxfile>
